<svg width="24" height="24" viewBox="0 0 24 24" fill="none" xmlns="http://www.w3.org/2000/svg">
<g id="ri:shopping-cart-2-line">
<path id="Vector" d="M4.00402 6.41701L0.762024 3.17401L2.17602 1.76001L5.41902 5.00301H20.66C20.8159 5.003 20.9696 5.03942 21.1089 5.10938C21.2482 5.17933 21.3692 5.28087 21.4623 5.40591C21.5553 5.53094 21.6179 5.67599 21.6449 5.8295C21.672 5.983 21.6628 6.1407 21.618 6.29001L19.218 14.29C19.1563 14.4961 19.0297 14.6768 18.8571 14.8052C18.6846 14.9337 18.4752 15.003 18.26 15.003H6.00402V17.003H17.004V19.003H5.00402C4.73881 19.003 4.48445 18.8977 4.29692 18.7101C4.10938 18.5226 4.00402 18.2682 4.00402 18.003V6.41701ZM6.00402 7.00301V13.003H17.516L19.316 7.00301H6.00402ZM5.50402 23.003C5.1062 23.003 4.72467 22.845 4.44336 22.5637C4.16206 22.2824 4.00402 21.9008 4.00402 21.503C4.00402 21.1052 4.16206 20.7237 4.44336 20.4423C4.72467 20.161 5.1062 20.003 5.50402 20.003C5.90185 20.003 6.28338 20.161 6.56468 20.4423C6.84599 20.7237 7.00402 21.1052 7.00402 21.503C7.00402 21.9008 6.84599 22.2824 6.56468 22.5637C6.28338 22.845 5.90185 23.003 5.50402 23.003ZM17.504 23.003C17.1062 23.003 16.7247 22.845 16.4434 22.5637C16.1621 22.2824 16.004 21.9008 16.004 21.503C16.004 21.1052 16.1621 20.7237 16.4434 20.4423C16.7247 20.161 17.1062 20.003 17.504 20.003C17.9018 20.003 18.2834 20.161 18.5647 20.4423C18.846 20.7237 19.004 21.1052 19.004 21.503C19.004 21.9008 18.846 22.2824 18.5647 22.5637C18.2834 22.845 17.9018 23.003 17.504 23.003Z" fill="#4F4F4F"/>
</g>
</svg>
