<svg width="16" height="17" viewBox="0 0 16 17" fill="none" xmlns="http://www.w3.org/2000/svg">
<g id="ri:checkbox-circle-line">
<path id="Vector" d="M8 15.1667C4.318 15.1667 1.33333 12.182 1.33333 8.50004C1.33333 4.81804 4.318 1.83337 8 1.83337C11.682 1.83337 14.6667 4.81804 14.6667 8.50004C14.6667 12.182 11.682 15.1667 8 15.1667ZM8 13.8334C9.41448 13.8334 10.771 13.2715 11.7712 12.2713C12.7714 11.2711 13.3333 9.91453 13.3333 8.50004C13.3333 7.08555 12.7714 5.729 11.7712 4.7288C10.771 3.72861 9.41448 3.16671 8 3.16671C6.58551 3.16671 5.22895 3.72861 4.22876 4.7288C3.22856 5.729 2.66666 7.08555 2.66666 8.50004C2.66666 9.91453 3.22856 11.2711 4.22876 12.2713C5.22895 13.2715 6.58551 13.8334 8 13.8334ZM7.33533 11.1667L4.50666 8.33804L5.44933 7.39537L7.33533 9.28137L11.1067 5.51004L12.0493 6.45271L7.33533 11.1667Z" fill="white"/>
</g>
</svg>
